<?xml version="1.0" encoding="utf-8"?>
<!-- Generator: Adobe Illustrator 19.2.1, SVG Export Plug-In . SVG Version: 6.00 Build 0)  -->
<svg version="1.1" id="Capa_1" xmlns="http://www.w3.org/2000/svg" xmlns:xlink="http://www.w3.org/1999/xlink" x="0px" y="0px"
	 viewBox="0 0 100 100" style="enable-background:new 0 0 100 100;" xml:space="preserve">
<style type="text/css">
	.st0{display:none;}
	.st1{display:inline;fill:#FFFFFF;}
	.st2{fill:#00B1EB;}
</style>
<g id="Capa_1_1_" class="st0">
	<path class="st1" d="M98.7,41.1c0-2.3-1.9-4.2-4.2-4.2H89c-1.2,0-2.3,0.5-3,1.3c-1.7-6.4-3.7-13.8-5.5-19c-0.6-1.7-1.7-3.8-4.9-4.5
		C70.9,13.6,61.2,13,49.7,13s-21.2,0.7-25.9,1.7c-3.2,0.7-4.3,2.8-4.9,4.5c-1.8,5.2-3.9,12.6-5.5,19c-0.8-0.8-1.8-1.3-3-1.3H5
		c-2.3,0-4.2,1.9-4.2,4.2s1.9,4.2,4.2,4.2h2.8C6,48,4.7,51.2,4.7,53.7c0,3.9,2,13.9,3.3,19.8v10.2c0,1.8,1.5,3.2,3.2,3.2H21
		c1.8,0,3.2-1.5,3.2-3.2V78H75v5.7c0,1.8,1.5,3.2,3.2,3.2H88c1.8,0,3.2-1.5,3.2-3.2V73.5c1.3-5.9,3.3-15.9,3.3-19.8
		c0-2.5-1.3-5.7-3.1-8.4h2.8C96.8,45.3,98.7,43.4,98.7,41.1z M18.5,60.5c-2.2,0-3.9-1.8-3.9-3.9c0-2.2,1.8-3.9,3.9-3.9
		c2.2,0,3.9,1.8,3.9,3.9S20.6,60.5,18.5,60.5z M67.1,65.9H32.3c-0.9,0-1.6-0.7-1.6-1.6s0.7-1.6,1.6-1.6h34.8c0.9,0,1.6,0.7,1.6,1.6
		C68.8,65.2,68,65.9,67.1,65.9z M49.7,36.1c-13.1,0-25.6,1.3-31.5,3.1c1.6-6.2,3.6-13.4,5.3-18.4c0.3-1,0.5-1.2,1.3-1.4
		c4.3-1,13.8-1.6,24.8-1.6s20.5,0.6,24.8,1.6c0.8,0.2,1,0.4,1.3,1.4c1.7,4.9,3.7,12.2,5.3,18.4C75.3,37.3,62.9,36.1,49.7,36.1z
		 M81,60.5c-2.2,0-3.9-1.8-3.9-3.9c0-2.2,1.8-3.9,3.9-3.9c2.2,0,3.9,1.8,3.9,3.9S83.2,60.5,81,60.5z"/>
</g>
<g>
	<path class="st2" d="M49.9,97.4c13.2,0,26.4,0,39.6,0c4.4,0,7.1-2.7,7.1-7c0-9,0-18.1,0-27.1c0-0.7-0.2-0.9-0.9-0.9
		c-3.7,0-7.5,0-11.2,0c-0.8,0-0.9,0.3-0.9,0.9c0,6.7,0,13.4,0,20.1c0,0.9-0.2,1.1-1.1,1.1c-21.8,0-43.6,0-65.3,0c-0.8,0-1-0.1-1-1
		c0-6.7,0-13.4,0-20.1c0-0.9-0.2-1-1-1c-3.7,0-7.3,0-11,0c-0.7,0-1,0.2-0.9,0.9c0,9,0,18,0,27c0,0.8,0.1,1.5,0.3,2.2
		c0.9,3.1,3.3,4.8,6.7,4.8C23.5,97.4,36.7,97.4,49.9,97.4z"/>
	<path class="st2" d="M58.3,1c0.8,0.4,1.1,1.1,1.1,2c0,10.2,0,20.4,0,30.6c0,0.8,0.2,1,1,1c2.8-0.1,5.6,0,8.4,0
		c0.8,0,1.7-0.2,2.1,0.7c0.4,0.8-0.4,1.4-0.8,2c-4.6,6-9.3,12.1-13.9,18.1c-1.2,1.6-2.5,3.1-3.7,4.6c-1.3,1.5-2.5,1.5-3.7,0
		c-5.9-7.2-11.9-14.3-17.8-21.5c-0.4-0.5-0.9-1-1.3-1.6c-0.6-0.9-0.4-1.5,0.7-1.5c1.8-0.1,3.6,0,5.5-0.1c1.5,0,3,0,4.4,0
		c0.8,0,0.9-0.2,0.9-0.9c0-7.8,0-15.6,0-23.3c0-2.6,0-5.3,0-7.9c0-1,0.2-1.7,1.2-2C47.5,1,52.9,1,58.3,1z"/>
	<path class="st2" d="M49.9,97.4c-13.2,0-26.4,0-39.6,0c-3.4,0-5.8-1.7-6.7-4.8c-0.2-0.7-0.3-1.5-0.3-2.2c0-9,0-18,0-27
		c0-0.8,0.2-0.9,0.9-0.9c3.7,0,7.3,0,11,0c0.8,0,1,0.1,1,1c0,6.7,0,13.4,0,20.1c0,0.9,0.2,1,1,1c21.8,0,43.6,0,65.3,0
		c0.8,0,1.1-0.2,1.1-1.1c0-6.7,0-13.4,0-20.1c0-0.7,0.1-1,0.9-0.9c3.7,0,7.5,0,11.2,0c0.7,0,0.9,0.2,0.9,0.9c0,9,0,18.1,0,27.1
		c0,4.3-2.7,7-7.1,7C76.3,97.4,63.1,97.4,49.9,97.4z"/>
</g>
</svg>
