<?xml version="1.0" encoding="utf-8"?>
<!-- Generator: Adobe Illustrator 19.2.1, SVG Export Plug-In . SVG Version: 6.00 Build 0)  -->
<svg version="1.1" xmlns="http://www.w3.org/2000/svg" xmlns:xlink="http://www.w3.org/1999/xlink" x="0px" y="0px"
	 viewBox="0 0 100 100" style="enable-background:new 0 0 100 100;" xml:space="preserve">
<style type="text/css">
	.st0{display:none;}
	.st1{display:inline;fill:#FFFFFF;}
	.st2{display:inline;fill:#00B1EB;}
	.st3{fill:#00B1EB;}
</style>
<g id="Capa_1" class="st0">
	<path class="st1" d="M98.7,41.1c0-2.3-1.9-4.2-4.2-4.2H89c-1.2,0-2.3,0.5-3,1.3c-1.7-6.4-3.7-13.8-5.5-19c-0.6-1.7-1.7-3.8-4.9-4.5
		c-4.7-1.1-14.4-1.7-25.9-1.7c-11.5,0-21.2,0.7-25.9,1.7c-3.2,0.7-4.3,2.8-4.9,4.5c-1.8,5.2-3.9,12.6-5.5,19c-0.8-0.8-1.8-1.3-3-1.3
		H5c-2.3,0-4.2,1.9-4.2,4.2c0,2.3,1.9,4.2,4.2,4.2h2.8C6,48,4.7,51.2,4.7,53.7c0,3.9,2,13.9,3.3,19.8v10.2c0,1.8,1.5,3.2,3.2,3.2
		h9.8c1.8,0,3.2-1.5,3.2-3.2V78h50.8v5.7c0,1.8,1.5,3.2,3.2,3.2h9.8c1.8,0,3.2-1.5,3.2-3.2V73.5c1.3-5.9,3.3-15.9,3.3-19.8
		c0-2.5-1.3-5.7-3.1-8.4h2.8C96.8,45.3,98.7,43.4,98.7,41.1z M18.5,60.5c-2.2,0-3.9-1.8-3.9-3.9c0-2.2,1.8-3.9,3.9-3.9
		c2.2,0,3.9,1.8,3.9,3.9C22.4,58.7,20.6,60.5,18.5,60.5z M67.1,65.9H32.3c-0.9,0-1.6-0.7-1.6-1.6c0-0.9,0.7-1.6,1.6-1.6h34.8
		c0.9,0,1.6,0.7,1.6,1.6C68.8,65.2,68,65.9,67.1,65.9z M49.7,36.1c-13.1,0-25.6,1.3-31.5,3.1c1.6-6.2,3.6-13.4,5.3-18.4
		c0.3-1,0.5-1.2,1.3-1.4c4.3-1,13.8-1.6,24.8-1.6c11,0,20.5,0.6,24.8,1.6c0.8,0.2,1,0.4,1.3,1.4c1.7,4.9,3.7,12.2,5.3,18.4
		C75.3,37.3,62.9,36.1,49.7,36.1z M81,60.5c-2.2,0-3.9-1.8-3.9-3.9c0-2.2,1.8-3.9,3.9-3.9c2.2,0,3.9,1.8,3.9,3.9
		C84.9,58.7,83.2,60.5,81,60.5z"/>
</g>
<g id="Capa_2" class="st0">
	<path class="st2" d="M98.7,41.1c0-2.3-1.9-4.2-4.2-4.2H89c-1.2,0-2.3,0.5-3,1.3c-1.7-6.4-3.7-13.8-5.5-19c-0.6-1.7-1.7-3.8-4.9-4.5
		c-4.7-1.1-14.4-1.7-25.9-1.7c-11.5,0-21.2,0.7-25.9,1.7c-3.2,0.7-4.3,2.8-4.9,4.5c-1.8,5.2-3.9,12.6-5.5,19c-0.8-0.8-1.8-1.3-3-1.3
		H5c-2.3,0-4.2,1.9-4.2,4.2c0,2.3,1.9,4.2,4.2,4.2h2.8C6,48,4.7,51.2,4.7,53.7c0,3.9,2,13.9,3.3,19.8v10.2c0,1.8,1.5,3.2,3.2,3.2
		h9.8c1.8,0,3.2-1.5,3.2-3.2V78h50.8v5.7c0,1.8,1.5,3.2,3.2,3.2h9.8c1.8,0,3.2-1.5,3.2-3.2V73.5c1.3-5.9,3.3-15.9,3.3-19.8
		c0-2.5-1.3-5.7-3.1-8.4h2.8C96.8,45.3,98.7,43.4,98.7,41.1z M18.5,60.5c-2.2,0-3.9-1.8-3.9-3.9c0-2.2,1.8-3.9,3.9-3.9
		c2.2,0,3.9,1.8,3.9,3.9C22.4,58.7,20.6,60.5,18.5,60.5z M67.1,65.9H32.3c-0.9,0-1.6-0.7-1.6-1.6c0-0.9,0.7-1.6,1.6-1.6h34.8
		c0.9,0,1.6,0.7,1.6,1.6C68.8,65.2,68,65.9,67.1,65.9z M49.7,36.1c-13.1,0-25.6,1.3-31.5,3.1c1.6-6.2,3.6-13.4,5.3-18.4
		c0.3-1,0.5-1.2,1.3-1.4c4.3-1,13.8-1.6,24.8-1.6c11,0,20.5,0.6,24.8,1.6c0.8,0.2,1,0.4,1.3,1.4c1.7,4.9,3.7,12.2,5.3,18.4
		C75.3,37.3,62.9,36.1,49.7,36.1z M81,60.5c-2.2,0-3.9-1.8-3.9-3.9c0-2.2,1.8-3.9,3.9-3.9c2.2,0,3.9,1.8,3.9,3.9
		C84.9,58.7,83.2,60.5,81,60.5z"/>
</g>
<g id="Capa_3">
	<rect x="6.5" y="27.4" class="st3" width="65.8" height="65.8"/>
	<polygon class="st3" points="6.5,14.5 13.1,10.6 19.7,6.8 19.7,14.5 19.7,22.1 13.1,18.3 	"/>
	<polygon class="st3" points="72.3,14.5 65.7,18.3 59,22.1 59,14.5 59,6.8 65.7,10.6 	"/>
	<rect x="19.3" y="10" class="st3" width="42" height="8.9"/>
	<polygon class="st3" points="85.9,27.4 89.7,34 93.5,40.7 85.9,40.7 78.2,40.7 82,34 	"/>
	<polygon class="st3" points="85.9,93.2 82,86.6 78.2,79.9 85.9,79.9 93.5,79.9 89.7,86.6 	"/>
	
		<rect x="64.9" y="56.7" transform="matrix(4.487770e-11 1 -1 4.487770e-11 147.0436 -24.6736)" class="st3" width="42" height="8.9"/>
</g>
</svg>
