<?xml version="1.0" encoding="utf-8"?>
<!-- Generator: Adobe Illustrator 19.2.1, SVG Export Plug-In . SVG Version: 6.00 Build 0)  -->
<svg version="1.1" xmlns="http://www.w3.org/2000/svg" xmlns:xlink="http://www.w3.org/1999/xlink" x="0px" y="0px"
	 viewBox="0 0 100 100" style="enable-background:new 0 0 100 100;" xml:space="preserve">
<style type="text/css">
	.st0{fill:#FFFFFF;}
	.st1{display:none;}
	.st2{display:inline;fill:#00B1EB;}
	.st3{display:inline;fill:#FFFFFF;}
</style>
<g id="Capa_1">
	<path class="st0" d="M50,1.3c-18.4,0-33.5,15-33.5,33.5c0,5.6,1.4,11.2,4.1,16.1c0.1,0.1,0.1,0.2,0.2,0.3l26.5,45.9
		c0.5,0.9,1.5,1.5,2.6,1.5s2.1-0.6,2.6-1.5l26.5-45.9c0.1-0.1,0.1-0.2,0.2-0.3c2.7-4.9,4.1-10.5,4.1-16.1C83.4,16.4,68.4,1.3,50,1.3
		z M50,47c-6.7,0-12.2-5.4-12.2-12.2c0-6.7,5.4-12.2,12.2-12.2c6.7,0,12.2,5.4,12.2,12.2C62.2,41.5,56.7,47,50,47z"/>
</g>
<g id="Capa_1_copia" class="st1">
	<path class="st2" d="M50,1.3c-18.4,0-33.5,15-33.5,33.5c0,5.6,1.4,11.2,4.1,16.1c0.1,0.1,0.1,0.2,0.2,0.3l26.5,45.9
		c0.5,0.9,1.5,1.5,2.6,1.5s2.1-0.6,2.6-1.5l26.5-45.9c0.1-0.1,0.1-0.2,0.2-0.3c2.7-4.9,4.1-10.5,4.1-16.1C83.4,16.4,68.4,1.3,50,1.3
		z M50,47c-6.7,0-12.2-5.4-12.2-12.2c0-6.7,5.4-12.2,12.2-12.2c6.7,0,12.2,5.4,12.2,12.2C62.2,41.5,56.7,47,50,47z"/>
</g>
<g id="Capa_3" class="st1">
	<path class="st3" d="M96.8,78.7c-0.2-0.8-0.7-1.5-1.4-1.9L75.3,65.7c-1.3-0.7-2.9-0.4-3.8,0.8c-6.6,8.8-8.6,11-11.9,11
		c-7.3,0-37.2-30-37.2-37.3c0-3.1,2.3-5.2,11-11.8c1.2-0.9,1.5-2.5,0.8-3.8L23.1,4.6c-0.4-0.7-1.1-1.2-1.9-1.4
		C20.5,3,19.6,3.1,19,3.6C14.2,6.7,3.1,14.9,3.1,24.6v0.4c0,5.7-0.1,20.9,25.4,46.4C54,96.9,69.4,96.9,74.5,96.9h0.9
		c9.8,0,18-11.1,21.1-15.9C96.9,80.4,97,79.5,96.8,78.7z"/>
</g>
<g id="Capa_3_copia" class="st1">
	<path class="st2" d="M96.8,78.7c-0.2-0.8-0.7-1.5-1.4-1.9L75.3,65.7c-1.3-0.7-2.9-0.4-3.8,0.8c-6.6,8.8-8.6,11-11.9,11
		c-7.3,0-37.2-30-37.2-37.3c0-3.1,2.3-5.2,11-11.8c1.2-0.9,1.5-2.5,0.8-3.8L23.1,4.6c-0.4-0.7-1.1-1.2-1.9-1.4
		C20.5,3,19.6,3.1,19,3.6C14.2,6.7,3.1,14.9,3.1,24.6v0.4c0,5.7-0.1,20.9,25.4,46.4C54,96.9,69.4,96.9,74.5,96.9h0.9
		c9.8,0,18-11.1,21.1-15.9C96.9,80.4,97,79.5,96.8,78.7z"/>
</g>
<g id="Capa_5" class="st1">
	<path class="st3" d="M10.5,20.2h79.9c0.8,0,1.6,0.2,2.3,0.5h0L50.5,55.6L8.2,20.8h0C8.9,20.4,9.7,20.2,10.5,20.2z"/>
	<path class="st3" d="M3.1,73.2V27.6c0-1,0.3-1.9,0.8-2.7l31,25.5l-31,25.5C3.4,75.1,3.1,74.2,3.1,73.2z"/>
	<path class="st3" d="M90.4,80.6H10.5c-0.8,0-1.6-0.2-2.3-0.6h0l31.1-25.6l10.2,8.4c0.3,0.2,0.6,0.3,0.9,0.3c0.3,0,0.7-0.1,0.9-0.3
		l10.2-8.4L92.7,80C92,80.3,91.3,80.6,90.4,80.6z"/>
	<path class="st3" d="M97.8,73.2c0,1-0.3,1.9-0.8,2.7L66,50.4l31-25.5c0.5,0.8,0.8,1.7,0.8,2.7V73.2z"/>
</g>
<g id="Capa_5_copia" class="st1">
	<path class="st2" d="M10.5,20.2h79.9c0.8,0,1.6,0.2,2.3,0.5h0L50.5,55.6L8.2,20.8h0C8.9,20.4,9.7,20.2,10.5,20.2z"/>
	<path class="st2" d="M3.1,73.2V27.6c0-1,0.3-1.9,0.8-2.7l31,25.5l-31,25.5C3.4,75.1,3.1,74.2,3.1,73.2z"/>
	<path class="st2" d="M90.4,80.6H10.5c-0.8,0-1.6-0.2-2.3-0.6h0l31.1-25.6l10.2,8.4c0.3,0.2,0.6,0.3,0.9,0.3c0.3,0,0.7-0.1,0.9-0.3
		l10.2-8.4L92.7,80C92,80.3,91.3,80.6,90.4,80.6z"/>
	<path class="st2" d="M97.8,73.2c0,1-0.3,1.9-0.8,2.7L66,50.4l31-25.5c0.5,0.8,0.8,1.7,0.8,2.7V73.2z"/>
</g>
</svg>
