<?xml version="1.0" encoding="utf-8"?>
<!-- Generator: Adobe Illustrator 19.2.1, SVG Export Plug-In . SVG Version: 6.00 Build 0)  -->
<svg version="1.1" id="Capa_1" xmlns="http://www.w3.org/2000/svg" xmlns:xlink="http://www.w3.org/1999/xlink" x="0px" y="0px"
	 viewBox="0 0 100 100" style="enable-background:new 0 0 100 100;" xml:space="preserve">
<style type="text/css">
	.st0{display:none;}
	.st1{display:inline;fill:#FFFFFF;}
	.st2{display:inline;fill:#00B1EB;}
	.st3{fill:none;stroke:#FFFFFF;stroke-width:5;stroke-miterlimit:10;}
	.st4{fill:#00B1EB;stroke:#FFFFFF;stroke-width:3;stroke-miterlimit:10;}
</style>
<g id="Capa_1_1_" class="st0">
	<path class="st1" d="M98.7,41.1c0-2.3-1.9-4.2-4.2-4.2H89c-1.2,0-2.3,0.5-3,1.3c-1.7-6.4-3.7-13.8-5.5-19c-0.6-1.7-1.7-3.8-4.9-4.5
		C70.9,13.6,61.2,13,49.7,13s-21.2,0.7-25.9,1.7c-3.2,0.7-4.3,2.8-4.9,4.5c-1.8,5.2-3.9,12.6-5.5,19c-0.8-0.8-1.8-1.3-3-1.3H5
		c-2.3,0-4.2,1.9-4.2,4.2s1.9,4.2,4.2,4.2h2.8C6,48,4.7,51.2,4.7,53.7c0,3.9,2,13.9,3.3,19.8v10.2c0,1.8,1.5,3.2,3.2,3.2H21
		c1.8,0,3.2-1.5,3.2-3.2V78H75v5.7c0,1.8,1.5,3.2,3.2,3.2H88c1.8,0,3.2-1.5,3.2-3.2V73.5c1.3-5.9,3.3-15.9,3.3-19.8
		c0-2.5-1.3-5.7-3.1-8.4h2.8C96.8,45.3,98.7,43.4,98.7,41.1z M18.5,60.5c-2.2,0-3.9-1.8-3.9-3.9c0-2.2,1.8-3.9,3.9-3.9
		c2.2,0,3.9,1.8,3.9,3.9S20.6,60.5,18.5,60.5z M67.1,65.9H32.3c-0.9,0-1.6-0.7-1.6-1.6s0.7-1.6,1.6-1.6h34.8c0.9,0,1.6,0.7,1.6,1.6
		C68.8,65.2,68,65.9,67.1,65.9z M49.7,36.1c-13.1,0-25.6,1.3-31.5,3.1c1.6-6.2,3.6-13.4,5.3-18.4c0.3-1,0.5-1.2,1.3-1.4
		c4.3-1,13.8-1.6,24.8-1.6s20.5,0.6,24.8,1.6c0.8,0.2,1,0.4,1.3,1.4c1.7,4.9,3.7,12.2,5.3,18.4C75.3,37.3,62.9,36.1,49.7,36.1z
		 M81,60.5c-2.2,0-3.9-1.8-3.9-3.9c0-2.2,1.8-3.9,3.9-3.9c2.2,0,3.9,1.8,3.9,3.9S83.2,60.5,81,60.5z"/>
</g>
<g id="Capa_2" class="st0">
	<path class="st2" d="M98.7,41.1c0-2.3-1.9-4.2-4.2-4.2H89c-1.2,0-2.3,0.5-3,1.3c-1.7-6.4-3.7-13.8-5.5-19c-0.6-1.7-1.7-3.8-4.9-4.5
		C70.9,13.6,61.2,13,49.7,13s-21.2,0.7-25.9,1.7c-3.2,0.7-4.3,2.8-4.9,4.5c-1.8,5.2-3.9,12.6-5.5,19c-0.8-0.8-1.8-1.3-3-1.3H5
		c-2.3,0-4.2,1.9-4.2,4.2s1.9,4.2,4.2,4.2h2.8C6,48,4.7,51.2,4.7,53.7c0,3.9,2,13.9,3.3,19.8v10.2c0,1.8,1.5,3.2,3.2,3.2H21
		c1.8,0,3.2-1.5,3.2-3.2V78H75v5.7c0,1.8,1.5,3.2,3.2,3.2H88c1.8,0,3.2-1.5,3.2-3.2V73.5c1.3-5.9,3.3-15.9,3.3-19.8
		c0-2.5-1.3-5.7-3.1-8.4h2.8C96.8,45.3,98.7,43.4,98.7,41.1z M18.5,60.5c-2.2,0-3.9-1.8-3.9-3.9c0-2.2,1.8-3.9,3.9-3.9
		c2.2,0,3.9,1.8,3.9,3.9S20.6,60.5,18.5,60.5z M67.1,65.9H32.3c-0.9,0-1.6-0.7-1.6-1.6s0.7-1.6,1.6-1.6h34.8c0.9,0,1.6,0.7,1.6,1.6
		C68.8,65.2,68,65.9,67.1,65.9z M49.7,36.1c-13.1,0-25.6,1.3-31.5,3.1c1.6-6.2,3.6-13.4,5.3-18.4c0.3-1,0.5-1.2,1.3-1.4
		c4.3-1,13.8-1.6,24.8-1.6s20.5,0.6,24.8,1.6c0.8,0.2,1,0.4,1.3,1.4c1.7,4.9,3.7,12.2,5.3,18.4C75.3,37.3,62.9,36.1,49.7,36.1z
		 M81,60.5c-2.2,0-3.9-1.8-3.9-3.9c0-2.2,1.8-3.9,3.9-3.9c2.2,0,3.9,1.8,3.9,3.9S83.2,60.5,81,60.5z"/>
</g>
<g id="Capa_3">
	<circle class="st3" cx="51.1" cy="50.7" r="44.3"/>
	<rect x="50" y="17" class="st4" width="2.3" height="33.8"/>
	<rect x="50.1" y="48.8" class="st4" width="23.3" height="2.3"/>
</g>
</svg>
